<svg width="32" height="32" viewBox="0 0 32 32" fill="none" xmlns="http://www.w3.org/2000/svg">
    <rect width="32" height="32" rx="16" fill="#ECE4DB"/>
    <g clip-path="url(#clip0_1_265)">
        <path d="M23.0001 16.572L15.5001 24L8.00006 16.572C7.50536 16.0906 7.1157 15.512 6.8556 14.8726C6.59551 14.2333 6.47062 13.5469 6.48879 12.8569C6.50697 12.1669 6.66782 11.4881 6.96121 10.8633C7.25461 10.2385 7.67419 9.68125 8.19354 9.22657C8.71289 8.7719 9.32076 8.42968 9.97887 8.22147C10.637 8.01327 11.3311 7.94358 12.0174 8.0168C12.7038 8.09001 13.3676 8.30455 13.9669 8.6469C14.5663 8.98925 15.0883 9.45199 15.5001 10.006C15.9136 9.45602 16.4362 8.99731 17.0352 8.6586C17.6341 8.31988 18.2966 8.10844 18.981 8.03751C19.6654 7.96658 20.3571 8.03769 21.0128 8.24639C21.6685 8.45508 22.2741 8.79687 22.7916 9.25036C23.3091 9.70385 23.7275 10.2593 24.0205 10.8819C24.3135 11.5045 24.4748 12.1809 24.4944 12.8687C24.5139 13.5565 24.3913 14.241 24.1342 14.8792C23.8771 15.5175 23.491 16.0958 23.0001 16.578"
              stroke="black" stroke-linecap="round" stroke-linejoin="round"/>
    </g>
    <defs>
        <clipPath id="clip0_1_265">
            <rect width="24" height="24" fill="white" transform="translate(3.5 4)"/>
        </clipPath>
    </defs>
</svg>
