<svg width="48" height="48" viewBox="0 0 48 48" fill="none" xmlns="http://www.w3.org/2000/svg">
    <rect width="48" height="48" rx="24" fill="#ECE4DB"/>
    <g clip-path="url(#clip0_28_2901)">
        <path d="M18.8333 27H28.8333V31C28.8333 31.5304 28.6225 32.0391 28.2475 32.4142C27.8724 32.7893 27.3637 33 26.8333 33H20.8333C20.3028 33 19.7941 32.7893 19.419 32.4142C19.044 32.0391 18.8333 31.5304 18.8333 31V27Z"
              stroke="black" stroke-linecap="round" stroke-linejoin="round"/>
        <path d="M23.8333 21C23.8333 19.4087 23.2011 17.8826 22.0759 16.7574C20.9507 15.6321 19.4246 15 17.8333 15H14.8333V17C14.8333 18.5913 15.4654 20.1174 16.5906 21.2426C17.7158 22.3679 19.242 23 20.8333 23H23.8333"
              stroke="black" stroke-linecap="round" stroke-linejoin="round"/>
        <path d="M23.8333 23C23.8333 21.4087 24.4654 19.8826 25.5906 18.7574C26.7158 17.6321 28.242 17 29.8333 17H32.8333V18C32.8333 19.5913 32.2011 21.1174 31.0759 22.2426C29.9507 23.3679 28.4246 24 26.8333 24H23.8333"
              stroke="black" stroke-linecap="round" stroke-linejoin="round"/>
        <path d="M23.8333 27V21" stroke="black" stroke-linecap="round" stroke-linejoin="round"/>
    </g>
    <defs>
        <clipPath id="clip0_28_2901">
            <rect width="24" height="24" fill="white" transform="translate(11.8333 12)"/>
        </clipPath>
    </defs>
</svg>
